<svg width="306" height="49" viewBox="0 0 306 49" fill="none" xmlns="http://www.w3.org/2000/svg">
<path d="M41.9068 1.30981L25.7271 28.9379V47.8002H16.222V28.9379L0 1.30981H10.878C17.2359 12.4413 19.9818 17.6797 21.1013 21.2282C22.2208 17.7642 25.03 12.4624 31.3245 1.30981H41.9279H41.9068Z" fill="white"/>
<path d="M35.7602 30.6699C35.7602 20.3833 43.491 12.8638 54.2212 12.8638C64.9513 12.8638 72.7455 20.4045 72.7455 30.6699C72.7455 40.9354 65.0147 48.4761 54.2212 48.4761C43.4276 48.4761 35.7602 41.0833 35.7602 30.6699ZM63.7896 30.6699C63.7896 25.157 59.7341 21.2282 54.2212 21.2282C48.7082 21.2282 44.8006 25.157 44.8006 30.6699C44.8006 36.1829 48.7927 40.0905 54.2212 40.0905C59.6496 40.0905 63.7896 36.0984 63.7896 30.6699Z" fill="white"/>
<path d="M102.085 13.5603H111.442V47.8208H103.584L102.275 42.7726C100.183 46.3845 96.5716 48.539 91.5444 48.539C84.4051 48.539 77.7938 44.0188 77.7938 33.5421V13.5603H87.0876V32.0846C87.0876 38.6959 90.8263 40.5336 94.4171 40.5336C98.8739 40.5336 102.085 37.7243 102.085 31.8312V13.5603Z" fill="white"/>
<path d="M127.685 17.9541C129.459 14.8069 132.522 12.8425 137.971 13.4973L137.908 21.4816C131.487 20.7001 127.896 22.8545 127.896 28.2196V47.8001H118.602V13.5607H126.206L127.706 17.9541H127.685Z" fill="white"/>
<mask id="mask0_20_295" style="mask-type:luminance" maskUnits="userSpaceOnUse" x="137" y="1" width="46" height="47">
<path d="M172.084 47.8213L168.62 37.5981H151.194C150.138 40.6819 149.04 44.0193 147.793 47.8213H137.971L154.679 1.30981H165.494L182.392 47.8002H172.105L172.084 47.8213ZM166.001 29.8039C161.227 15.3984 160.044 11.1317 159.706 7.79439C159.453 11.1317 158.333 15.4618 153.75 29.8039H166.001Z" fill="white"/>
</mask>
<g mask="url(#mask0_20_295)">
<path d="M182.265 47.8213L165.557 1.30981H159.918C159.854 13.3496 157.679 3.56991 165.874 29.8039H153.623L151.067 37.5981H168.472C171.218 45.7302 171.957 47.8213 171.957 47.8213H182.244H182.265Z" fill="url(#paint0_linear_20_295)"/>
<path d="M147.793 47.8213H137.971L154.679 1.30981H160.044L159.706 7.79439C159.706 7.79439 160.256 10.2235 153.771 29.8039C151.215 37.8727 147.814 47.8213 147.814 47.8213H147.793Z" fill="url(#paint1_linear_20_295)"/>
<path d="M153.095 37.598C158.143 37.6614 158.143 29.7405 153.095 29.8038C148.047 29.7405 148.047 37.6614 153.095 37.598Z" fill="url(#paint2_linear_20_295)"/>
</g>
<path d="M187.989 47.8212V6.06226H197.494V47.8212H187.989Z" fill="url(#paint3_linear_20_295)"/>
<path d="M192.742 10.7939C195.355 10.7939 197.473 8.67556 197.473 6.06247C197.473 3.44938 195.355 1.33105 192.742 1.33105C190.129 1.33105 188.01 3.44938 188.01 6.06247C188.01 8.67556 190.129 10.7939 192.742 10.7939Z" fill="url(#paint4_linear_20_295)"/>
<path d="M276.154 0.950439H213.759C210.014 0.950439 206.978 3.98608 206.978 7.73073V41.3998C206.978 45.1445 210.014 48.1801 213.759 48.1801H276.154C279.899 48.1801 282.934 45.1445 282.934 41.3998V7.73073C282.934 3.98608 279.899 0.950439 276.154 0.950439Z" fill="white"/>
<path d="M231.607 34.3871C230.868 32.2326 230.192 30.3316 229.621 28.5996H220.116L218.152 34.3871H214.054L222.672 10.3921H227.171L235.853 34.3871H231.586H231.607ZM228.502 25.3256C225.587 16.8133 224.975 14.7011 224.784 13.0113C224.573 14.7433 224.045 16.8767 221.194 25.3256H228.502Z" fill="black"/>
<path d="M256.003 25.6635C256.003 30.8596 252.581 34.7672 247.174 34.7672C244.534 34.7672 242.105 33.4787 240.774 31.1764V42.16H236.888V16.8343H240.098L240.774 20.3195V20.4251C241.725 18.0594 244.196 16.4963 247.364 16.4963C252.708 16.4963 255.982 20.5941 255.982 25.6635H256.003ZM252.117 25.6212C252.117 22.305 249.751 19.9815 246.435 19.9815C243.119 19.9815 240.795 22.4106 240.795 25.6212C240.795 28.8318 243.161 31.2398 246.435 31.2398C249.709 31.2398 252.117 28.9163 252.117 25.6212Z" fill="black"/>
<path d="M276.492 25.6635C276.492 30.8596 273.07 34.7672 267.663 34.7672C265.023 34.7672 262.594 33.4787 261.263 31.1764V42.16H257.376V16.8343H260.587L261.263 20.3195V20.4251C262.213 18.0594 264.685 16.4963 267.853 16.4963C273.197 16.4963 276.471 20.5941 276.471 25.6635H276.492ZM272.606 25.6212C272.606 22.305 270.24 19.9815 266.924 19.9815C263.607 19.9815 261.284 22.4106 261.284 25.6212C261.284 28.8318 263.65 31.2398 266.924 31.2398C270.198 31.2398 272.606 28.9163 272.606 25.6212Z" fill="black"/>
<path d="M306 7.9209C306 12.42 302.515 15.7995 297.889 15.7995C293.263 15.7995 289.884 12.3777 289.884 7.9209C289.884 3.46407 293.327 0 297.889 0C302.451 0 306 3.37958 306 7.9209ZM304.247 7.9209C304.247 4.33009 301.501 1.62642 297.889 1.62642C294.277 1.62642 291.637 4.16111 291.637 7.9209C291.637 11.4695 294.383 14.152 297.889 14.152C301.395 14.152 304.247 11.6384 304.247 7.9209ZM298.607 8.76579L301.691 12.1876H299.6L296.601 8.59681V12.1876H294.911V3.31621H298.459C300.36 3.31621 301.564 4.37233 301.564 6.01988C301.564 8.08987 299.832 8.72355 298.628 8.74467L298.607 8.76579ZM296.579 4.92152V7.56181H298.311C299.262 7.56181 299.832 7.01263 299.832 6.20998C299.832 5.32284 299.262 4.92152 298.311 4.92152H296.579Z" fill="white"/>
<defs>
<linearGradient id="paint0_linear_20_295" x1="153.032" y1="3.63328" x2="169.19" y2="49.8913" gradientUnits="userSpaceOnUse">
<stop stop-color="#37F1B9"/>
<stop offset="1" stop-color="#2C399D"/>
</linearGradient>
<linearGradient id="paint1_linear_20_295" x1="148.659" y1="30.332" x2="157.552" y2="10.4347" gradientUnits="userSpaceOnUse">
<stop stop-color="#37F1B9"/>
<stop offset="1" stop-color="#2C399D"/>
</linearGradient>
<linearGradient id="paint2_linear_20_295" x1="156.707" y1="33.7115" x2="149.441" y2="33.7115" gradientUnits="userSpaceOnUse">
<stop stop-color="#37F1B9"/>
<stop offset="1" stop-color="#2C399D"/>
</linearGradient>
<linearGradient id="paint3_linear_20_295" x1="192.742" y1="7.05501" x2="192.742" y2="47.1664" gradientUnits="userSpaceOnUse">
<stop stop-color="#37F1B9"/>
<stop offset="1" stop-color="#2C399D"/>
</linearGradient>
<linearGradient id="paint4_linear_20_295" x1="192.742" y1="1.5634" x2="192.742" y2="10.6672" gradientUnits="userSpaceOnUse">
<stop stop-color="#37F1B9"/>
<stop offset="1" stop-color="#2C399D"/>
</linearGradient>
</defs>
</svg>
